<?xml version="1.0" encoding="UTF-8"?>
<svg xmlns="http://www.w3.org/2000/svg" width="800" height="800" viewBox="0 0 800 800">
  <defs>
    <linearGradient id="bg" x1="0" y1="0" x2="1" y2="1">
      <stop offset="0%" stop-color="#faf7f2" />
      <stop offset="100%" stop-color="#f1ece3" />
    </linearGradient>
    <filter id="shadow" x="-20%" y="-20%" width="140%" height="140%">
      <feDropShadow dx="0" dy="16" stdDeviation="16" flood-color="#2d2216" flood-opacity="0.15" />
    </filter>
  </defs>
  <rect width="800" height="800" fill="url(#bg)" />
  <ellipse cx="400" cy="706" rx="180" ry="28" fill="#d8d1c8" opacity="0.42" />
  <g filter="url(#shadow)">
    
        <path d="M280 170 L350 136 L450 136 L520 170 L570 352 L510 378 L484 294 L474 662 L426 662 L404 436 L396 436 L374 662 L326 662 L316 294 L290 378 L230 352 Z"
          fill="#b98b61" stroke="#212121" stroke-opacity="0.18" stroke-width="8" />
        <path d="M352 136 L400 246 L448 136" fill="none" stroke="#e3c6a2" stroke-width="10" stroke-linecap="round" />
        <path d="M392 246 L364 662 M408 246 L436 662" stroke="#e3c6a2" stroke-width="9" stroke-linecap="round" />
  </g>
</svg>